<?xml version="1.0" encoding="UTF-8" standalone="no"?><svg xmlns="http://www.w3.org/2000/svg" xmlns:xlink="http://www.w3.org/1999/xlink" contentScriptType="application/ecmascript" contentStyleType="text/css" height="443px" preserveAspectRatio="none" style="width:276px;height:443px;" version="1.1" viewBox="0 0 276 443" width="276px" zoomAndPan="magnify"><defs><filter height="300%" id="f1szqjuvn1cu4h" width="300%" x="-1" y="-1"><feGaussianBlur result="blurOut" stdDeviation="2.0"/><feColorMatrix in="blurOut" result="blurOut2" type="matrix" values="0 0 0 0 0 0 0 0 0 0 0 0 0 0 0 0 0 0 .4 0"/><feOffset dx="4.0" dy="4.0" in="blurOut2" result="blurOut3"/><feBlend in="SourceGraphic" in2="blurOut3" mode="normal"/></filter></defs><g><text fill="#000000" font-family="sans-serif" font-size="18" lengthAdjust="spacingAndGlyphs" textLength="109" x="87.5" y="18.6855">Add to basket</text><ellipse cx="176.5" cy="40.6406" fill="#000000" filter="url(#f1szqjuvn1cu4h)" rx="10" ry="10" style="stroke: none; stroke-width: 1.0;"/><rect fill="#FEFECE" filter="url(#f1szqjuvn1cu4h)" height="35.0938" rx="12.5" ry="12.5" style="stroke: #A80036; stroke-width: 1.5;" width="178" x="87.5" y="91.6406"/><text fill="#000000" font-family="sans-serif" font-size="12" lengthAdjust="spacingAndGlyphs" textLength="158" x="97.5" y="114.0977">Choose Topping and Bottom</text><rect fill="#FEFECE" filter="url(#f1szqjuvn1cu4h)" height="35.0938" rx="12.5" ry="12.5" style="stroke: #A80036; stroke-width: 1.5;" width="94" x="129.5" y="167.6406"/><text fill="#000000" font-family="sans-serif" font-size="12" lengthAdjust="spacingAndGlyphs" textLength="74" x="139.5" y="190.0977">Enter amount</text><polygon fill="#FEFECE" filter="url(#f1szqjuvn1cu4h)" points="127.5,257.6406,139.5,269.6406,127.5,281.6406,115.5,269.6406,127.5,257.6406" style="stroke: #A80036; stroke-width: 1.5;"/><rect fill="#FEFECE" filter="url(#f1szqjuvn1cu4h)" height="35.0938" rx="12.5" ry="12.5" style="stroke: #A80036; stroke-width: 1.5;" width="143" x="56" y="336.6406"/><text fill="#000000" font-family="sans-serif" font-size="12" lengthAdjust="spacingAndGlyphs" textLength="123" x="66" y="359.0977">Add cupcake to basket</text><ellipse cx="127.5" cy="422.6406" fill="none" filter="url(#f1szqjuvn1cu4h)" rx="10" ry="10" style="stroke: #000000; stroke-width: 1.0;"/><ellipse cx="128" cy="423.1406" fill="#000000" rx="6" ry="6" style="stroke: none; stroke-width: 1.0;"/><rect fill="#FEFECE" filter="url(#f1szqjuvn1cu4h)" height="35.0938" rx="12.5" ry="12.5" style="stroke: #A80036; stroke-width: 1.5;" width="103" x="6" y="167.6406"/><text fill="#000000" font-family="sans-serif" font-size="12" lengthAdjust="spacingAndGlyphs" textLength="83" x="16" y="190.0977">Error message</text><!--MD5=[ecc3a6e9ff87c10ed99f6ae649bf7b08]
link start to Choose Topping and Bottom--><path d="M176.5,50.8876 C176.5,60.0676 176.5,74.4766 176.5,86.5416 " fill="none" id="start-&gt;Choose Topping and Bottom" style="stroke: #A80036; stroke-width: 1.0;"/><polygon fill="#A80036" points="176.5,91.5476,180.5,82.5476,176.5,86.5476,172.5,82.5476,176.5,91.5476" style="stroke: #A80036; stroke-width: 1.0;"/><!--MD5=[6d314cc10c19de22a9811ddebea582a7]
link Choose Topping and Bottom to Enter amount--><path d="M176.5,126.9326 C176.5,137.4346 176.5,151.0696 176.5,162.3946 " fill="none" id="Choose Topping and Bottom-&gt;Enter amount" style="stroke: #A80036; stroke-width: 1.0;"/><polygon fill="#A80036" points="176.5,167.4156,180.5,158.4156,176.5,162.4156,172.5,158.4156,176.5,167.4156" style="stroke: #A80036; stroke-width: 1.0;"/><!--MD5=[64ead0f77ffa1779e6d7ba1c1e76b3d4]
link Enter amount to #5560--><path d="M166.584,202.8356 C157.037,218.9106 142.844,242.8066 134.446,256.9466 " fill="none" id="Enter amount-&gt;#5560" style="stroke: #A80036; stroke-width: 1.0;"/><polygon fill="#A80036" points="131.835,261.3416,139.8698,255.6459,134.3881,257.0426,132.9914,251.5609,131.835,261.3416" style="stroke: #A80036; stroke-width: 1.0;"/><text fill="#000000" font-family="sans-serif" font-size="11" lengthAdjust="spacingAndGlyphs" textLength="62" x="147.2941" y="253.4689">If amount &gt; 0</text><!--MD5=[420a88d4c0ddd3243525aff811798517]
link #5560 to Add cupcake to basket--><path d="M127.5,281.7666 C127.5,294.4116 127.5,315.3606 127.5,331.3006 " fill="none" id="#5560-&gt;Add cupcake to basket" style="stroke: #A80036; stroke-width: 1.0;"/><polygon fill="#A80036" points="127.5,336.4951,131.5,327.4951,127.5,331.4951,123.5,327.4951,127.5,336.4951" style="stroke: #A80036; stroke-width: 1.0;"/><text fill="#000000" font-family="sans-serif" font-size="11" lengthAdjust="spacingAndGlyphs" textLength="20" x="128.5" y="314.0596">Yes</text><!--MD5=[506680a0b53ec307d7eb3c1e69077e9e]
link Add cupcake to basket to end--><path d="M127.5,371.9214 C127.5,382.9305 127.5,397.1623 127.5,407.5767 " fill="none" id="Add cupcake to basket-&gt;end" style="stroke: #A80036; stroke-width: 1.0;"/><polygon fill="#A80036" points="127.5,412.6375,131.5,403.6375,127.5,407.6375,123.5,403.6375,127.5,412.6375" style="stroke: #A80036; stroke-width: 1.0;"/><!--MD5=[f219da53202e1ab45f73daea701f574b]
link #5560 to Error message--><path d="M122.317,262.5326 C112.479,250.9376 90.69,225.2576 75.0908,206.8726 " fill="none" id="#5560-&gt;Error message" style="stroke: #A80036; stroke-width: 1.0;"/><polygon fill="#A80036" points="71.6655,202.8356,74.4394,212.2858,74.9009,206.6478,80.5389,207.1092,71.6655,202.8356" style="stroke: #A80036; stroke-width: 1.0;"/><text fill="#000000" font-family="sans-serif" font-size="11" lengthAdjust="spacingAndGlyphs" textLength="13" x="101.5" y="235.0596">No</text><!--MD5=[b6f11fb0f208475e9aefd9e306474657]
link Error message to Enter amount--><path d="M109.098,185.1406 C114.166,185.1406 119.234,185.1406 124.303,185.1406 " fill="none" id="Error message-&gt;Enter amount" style="stroke: #A80036; stroke-width: 1.0;"/><polygon fill="#A80036" points="129.371,185.1406,120.371,181.1406,124.371,185.1406,120.371,189.1406,129.371,185.1406" style="stroke: #A80036; stroke-width: 1.0;"/><!--MD5=[cf2e4061c654109885bc3fa2be21e403]
@startuml
title Add to basket
(*)  - -> "Choose Topping and Bottom"
- -> "Enter amount"
If "If amount > 0" then
- -> [Yes] "Add cupcake to basket"
- ->(*)
else
- -> [No] "Error message"
"Error message" -right-> Enter amount
Endif

@enduml

PlantUML version 1.2020.03beta6(Unknown compile time)
(GPL source distribution)
Java Runtime: OpenJDK Runtime Environment
JVM: OpenJDK 64-Bit Server VM
Java Version: 11.0.6+8-b520.43
Operating System: Windows 10
Default Encoding: Cp1252
Language: da
Country: DK
--></g></svg>