<?xml version="1.0" encoding="UTF-8" standalone="no"?><svg xmlns="http://www.w3.org/2000/svg" xmlns:xlink="http://www.w3.org/1999/xlink" contentScriptType="application/ecmascript" contentStyleType="text/css" height="521px" preserveAspectRatio="none" style="width:298px;height:521px;" version="1.1" viewBox="0 0 298 521" width="298px" zoomAndPan="magnify"><defs><filter height="300%" id="f1evfcpkws0k12" width="300%" x="-1" y="-1"><feGaussianBlur result="blurOut" stdDeviation="2.0"/><feColorMatrix in="blurOut" result="blurOut2" type="matrix" values="0 0 0 0 0 0 0 0 0 0 0 0 0 0 0 0 0 0 .4 0"/><feOffset dx="4.0" dy="4.0" in="blurOut2" result="blurOut3"/><feBlend in="SourceGraphic" in2="blurOut3" mode="normal"/></filter></defs><g><text fill="#000000" font-family="sans-serif" font-size="18" lengthAdjust="spacingAndGlyphs" textLength="110" x="97.5" y="18.6855">DomainModel</text><!--MD5=[2ce0c9fb7f55b1e256ab28a8ea6b25ec]
class Customer--><rect fill="#FEFECE" filter="url(#f1evfcpkws0k12)" height="48" id="Customer" style="stroke: #A80036; stroke-width: 1.5;" width="87" x="100.5" y="30.6406"/><ellipse cx="115.5" cy="46.6406" fill="#ADD1B2" rx="11" ry="11" style="stroke: #A80036; stroke-width: 1.0;"/><path d="M117.5,43.1406 Q117.7031,42.6406 117.9375,42.3906 Q118.1719,42.1406 118.4375,42.1406 Q118.9063,42.1406 119.2031,42.4219 Q119.5,42.7031 119.5,43.3594 L119.5,44.9219 Q119.5,45.5781 119.2188,45.8594 Q118.9375,46.1406 118.5,46.1406 Q118.1094,46.1406 117.8594,45.9688 Q117.6094,45.7969 117.5,45.3438 Q117.4531,45.0313 117.2813,44.8594 Q116.9688,44.5313 116.4063,44.3438 Q115.8438,44.1406 115.2813,44.1406 Q114.5781,44.1406 113.9844,44.4219 Q113.4063,44.7031 112.9531,45.3281 Q112.5,45.9531 112.5,46.8125 L112.5,47.7344 Q112.5,48.7656 113.3438,49.4531 Q114.1875,50.1406 115.6875,50.1406 Q116.5781,50.1406 117.2031,49.9375 Q117.5625,49.8281 117.9688,49.4688 Q118.2344,49.2656 118.375,49.2031 Q118.5156,49.1406 118.6875,49.1406 Q119.0156,49.1406 119.25,49.4063 Q119.5,49.6563 119.5,50.0156 Q119.5,50.3594 119.1563,50.7656 Q118.6563,51.3594 117.8594,51.6875 Q116.8125,52.1406 115.5313,52.1406 Q114.0313,52.1406 112.8281,51.5469 Q111.8594,51.0781 111.1719,50.0625 Q110.5,49.0469 110.5,47.8438 L110.5,46.75 Q110.5,45.5 111.0938,44.4063 Q111.7031,43.3125 112.75,42.7344 Q113.8125,42.1406 115,42.1406 Q115.7188,42.1406 116.3438,42.3906 Q116.9688,42.6406 117.5,43.1406 Z "/><text fill="#000000" font-family="sans-serif" font-size="12" lengthAdjust="spacingAndGlyphs" textLength="55" x="129.5" y="51.5508">Customer</text><line style="stroke: #A80036; stroke-width: 1.5;" x1="101.5" x2="186.5" y1="62.6406" y2="62.6406"/><line style="stroke: #A80036; stroke-width: 1.5;" x1="101.5" x2="186.5" y1="70.6406" y2="70.6406"/><!--MD5=[a7a294a2d2fc533a8f9f617ab0f8faab]
class Basket--><rect fill="#FEFECE" filter="url(#f1evfcpkws0k12)" height="48" id="Basket" style="stroke: #A80036; stroke-width: 1.5;" width="70" x="56" y="138.6406"/><ellipse cx="71" cy="154.6406" fill="#ADD1B2" rx="11" ry="11" style="stroke: #A80036; stroke-width: 1.0;"/><path d="M73,151.1406 Q73.2031,150.6406 73.4375,150.3906 Q73.6719,150.1406 73.9375,150.1406 Q74.4063,150.1406 74.7031,150.4219 Q75,150.7031 75,151.3594 L75,152.9219 Q75,153.5781 74.7188,153.8594 Q74.4375,154.1406 74,154.1406 Q73.6094,154.1406 73.3594,153.9688 Q73.1094,153.7969 73,153.3438 Q72.9531,153.0313 72.7813,152.8594 Q72.4688,152.5313 71.9063,152.3438 Q71.3438,152.1406 70.7813,152.1406 Q70.0781,152.1406 69.4844,152.4219 Q68.9063,152.7031 68.4531,153.3281 Q68,153.9531 68,154.8125 L68,155.7344 Q68,156.7656 68.8438,157.4531 Q69.6875,158.1406 71.1875,158.1406 Q72.0781,158.1406 72.7031,157.9375 Q73.0625,157.8281 73.4688,157.4688 Q73.7344,157.2656 73.875,157.2031 Q74.0156,157.1406 74.1875,157.1406 Q74.5156,157.1406 74.75,157.4063 Q75,157.6563 75,158.0156 Q75,158.3594 74.6563,158.7656 Q74.1563,159.3594 73.3594,159.6875 Q72.3125,160.1406 71.0313,160.1406 Q69.5313,160.1406 68.3281,159.5469 Q67.3594,159.0781 66.6719,158.0625 Q66,157.0469 66,155.8438 L66,154.75 Q66,153.5 66.5938,152.4063 Q67.2031,151.3125 68.25,150.7344 Q69.3125,150.1406 70.5,150.1406 Q71.2188,150.1406 71.8438,150.3906 Q72.4688,150.6406 73,151.1406 Z "/><text fill="#000000" font-family="sans-serif" font-size="12" lengthAdjust="spacingAndGlyphs" textLength="38" x="85" y="159.5508">Basket</text><line style="stroke: #A80036; stroke-width: 1.5;" x1="57" x2="125" y1="170.6406" y2="170.6406"/><line style="stroke: #A80036; stroke-width: 1.5;" x1="57" x2="125" y1="178.6406" y2="178.6406"/><!--MD5=[cf4d6237fcae255cd2e1656cf84a30e2]
class Order--><rect fill="#FEFECE" filter="url(#f1evfcpkws0k12)" height="48" id="Order" style="stroke: #A80036; stroke-width: 1.5;" width="63" x="50.5" y="246.6406"/><ellipse cx="65.5" cy="262.6406" fill="#ADD1B2" rx="11" ry="11" style="stroke: #A80036; stroke-width: 1.0;"/><path d="M67.5,259.1406 Q67.7031,258.6406 67.9375,258.3906 Q68.1719,258.1406 68.4375,258.1406 Q68.9063,258.1406 69.2031,258.4219 Q69.5,258.7031 69.5,259.3594 L69.5,260.9219 Q69.5,261.5781 69.2188,261.8594 Q68.9375,262.1406 68.5,262.1406 Q68.1094,262.1406 67.8594,261.9688 Q67.6094,261.7969 67.5,261.3438 Q67.4531,261.0313 67.2813,260.8594 Q66.9688,260.5313 66.4063,260.3438 Q65.8438,260.1406 65.2813,260.1406 Q64.5781,260.1406 63.9844,260.4219 Q63.4063,260.7031 62.9531,261.3281 Q62.5,261.9531 62.5,262.8125 L62.5,263.7344 Q62.5,264.7656 63.3438,265.4531 Q64.1875,266.1406 65.6875,266.1406 Q66.5781,266.1406 67.2031,265.9375 Q67.5625,265.8281 67.9688,265.4688 Q68.2344,265.2656 68.375,265.2031 Q68.5156,265.1406 68.6875,265.1406 Q69.0156,265.1406 69.25,265.4063 Q69.5,265.6563 69.5,266.0156 Q69.5,266.3594 69.1563,266.7656 Q68.6563,267.3594 67.8594,267.6875 Q66.8125,268.1406 65.5313,268.1406 Q64.0313,268.1406 62.8281,267.5469 Q61.8594,267.0781 61.1719,266.0625 Q60.5,265.0469 60.5,263.8438 L60.5,262.75 Q60.5,261.5 61.0938,260.4063 Q61.7031,259.3125 62.75,258.7344 Q63.8125,258.1406 65,258.1406 Q65.7188,258.1406 66.3438,258.3906 Q66.9688,258.6406 67.5,259.1406 Z "/><text fill="#000000" font-family="sans-serif" font-size="12" lengthAdjust="spacingAndGlyphs" textLength="31" x="79.5" y="267.5508">Order</text><line style="stroke: #A80036; stroke-width: 1.5;" x1="51.5" x2="112.5" y1="278.6406" y2="278.6406"/><line style="stroke: #A80036; stroke-width: 1.5;" x1="51.5" x2="112.5" y1="286.6406" y2="286.6406"/><!--MD5=[6696d22119cb0bfbe04f5ec5c433b234]
class OrderLines--><rect fill="#FEFECE" filter="url(#f1evfcpkws0k12)" height="48" id="OrderLines" style="stroke: #A80036; stroke-width: 1.5;" width="94" x="98" y="354.6406"/><ellipse cx="113" cy="370.6406" fill="#ADD1B2" rx="11" ry="11" style="stroke: #A80036; stroke-width: 1.0;"/><path d="M115,367.1406 Q115.2031,366.6406 115.4375,366.3906 Q115.6719,366.1406 115.9375,366.1406 Q116.4063,366.1406 116.7031,366.4219 Q117,366.7031 117,367.3594 L117,368.9219 Q117,369.5781 116.7188,369.8594 Q116.4375,370.1406 116,370.1406 Q115.6094,370.1406 115.3594,369.9688 Q115.1094,369.7969 115,369.3438 Q114.9531,369.0313 114.7813,368.8594 Q114.4688,368.5313 113.9063,368.3438 Q113.3438,368.1406 112.7813,368.1406 Q112.0781,368.1406 111.4844,368.4219 Q110.9063,368.7031 110.4531,369.3281 Q110,369.9531 110,370.8125 L110,371.7344 Q110,372.7656 110.8438,373.4531 Q111.6875,374.1406 113.1875,374.1406 Q114.0781,374.1406 114.7031,373.9375 Q115.0625,373.8281 115.4688,373.4688 Q115.7344,373.2656 115.875,373.2031 Q116.0156,373.1406 116.1875,373.1406 Q116.5156,373.1406 116.75,373.4063 Q117,373.6563 117,374.0156 Q117,374.3594 116.6563,374.7656 Q116.1563,375.3594 115.3594,375.6875 Q114.3125,376.1406 113.0313,376.1406 Q111.5313,376.1406 110.3281,375.5469 Q109.3594,375.0781 108.6719,374.0625 Q108,373.0469 108,371.8438 L108,370.75 Q108,369.5 108.5938,368.4063 Q109.2031,367.3125 110.25,366.7344 Q111.3125,366.1406 112.5,366.1406 Q113.2188,366.1406 113.8438,366.3906 Q114.4688,366.6406 115,367.1406 Z "/><text fill="#000000" font-family="sans-serif" font-size="12" lengthAdjust="spacingAndGlyphs" textLength="62" x="127" y="375.5508">OrderLines</text><line style="stroke: #A80036; stroke-width: 1.5;" x1="99" x2="191" y1="386.6406" y2="386.6406"/><line style="stroke: #A80036; stroke-width: 1.5;" x1="99" x2="191" y1="394.6406" y2="394.6406"/><!--MD5=[aca552b4c5e155a1b586cf3c54807e26]
class PreviousOrders--><rect fill="#FEFECE" filter="url(#f1evfcpkws0k12)" height="48" id="PreviousOrders" style="stroke: #A80036; stroke-width: 1.5;" width="118" x="149" y="246.6406"/><ellipse cx="164" cy="262.6406" fill="#ADD1B2" rx="11" ry="11" style="stroke: #A80036; stroke-width: 1.0;"/><path d="M166,259.1406 Q166.2031,258.6406 166.4375,258.3906 Q166.6719,258.1406 166.9375,258.1406 Q167.4063,258.1406 167.7031,258.4219 Q168,258.7031 168,259.3594 L168,260.9219 Q168,261.5781 167.7188,261.8594 Q167.4375,262.1406 167,262.1406 Q166.6094,262.1406 166.3594,261.9688 Q166.1094,261.7969 166,261.3438 Q165.9531,261.0313 165.7813,260.8594 Q165.4688,260.5313 164.9063,260.3438 Q164.3438,260.1406 163.7813,260.1406 Q163.0781,260.1406 162.4844,260.4219 Q161.9063,260.7031 161.4531,261.3281 Q161,261.9531 161,262.8125 L161,263.7344 Q161,264.7656 161.8438,265.4531 Q162.6875,266.1406 164.1875,266.1406 Q165.0781,266.1406 165.7031,265.9375 Q166.0625,265.8281 166.4688,265.4688 Q166.7344,265.2656 166.875,265.2031 Q167.0156,265.1406 167.1875,265.1406 Q167.5156,265.1406 167.75,265.4063 Q168,265.6563 168,266.0156 Q168,266.3594 167.6563,266.7656 Q167.1563,267.3594 166.3594,267.6875 Q165.3125,268.1406 164.0313,268.1406 Q162.5313,268.1406 161.3281,267.5469 Q160.3594,267.0781 159.6719,266.0625 Q159,265.0469 159,263.8438 L159,262.75 Q159,261.5 159.5938,260.4063 Q160.2031,259.3125 161.25,258.7344 Q162.3125,258.1406 163.5,258.1406 Q164.2188,258.1406 164.8438,258.3906 Q165.4688,258.6406 166,259.1406 Z "/><text fill="#000000" font-family="sans-serif" font-size="12" lengthAdjust="spacingAndGlyphs" textLength="86" x="178" y="267.5508">PreviousOrders</text><line style="stroke: #A80036; stroke-width: 1.5;" x1="150" x2="266" y1="278.6406" y2="278.6406"/><line style="stroke: #A80036; stroke-width: 1.5;" x1="150" x2="266" y1="286.6406" y2="286.6406"/><!--MD5=[95c02d41e4675b8c15549f3c54513295]
class CupcakeBottom--><rect fill="#FEFECE" filter="url(#f1evfcpkws0k12)" height="48" id="CupcakeBottom" style="stroke: #A80036; stroke-width: 1.5;" width="120" x="6" y="462.6406"/><ellipse cx="21" cy="478.6406" fill="#ADD1B2" rx="11" ry="11" style="stroke: #A80036; stroke-width: 1.0;"/><path d="M23,475.1406 Q23.2031,474.6406 23.4375,474.3906 Q23.6719,474.1406 23.9375,474.1406 Q24.4063,474.1406 24.7031,474.4219 Q25,474.7031 25,475.3594 L25,476.9219 Q25,477.5781 24.7188,477.8594 Q24.4375,478.1406 24,478.1406 Q23.6094,478.1406 23.3594,477.9688 Q23.1094,477.7969 23,477.3438 Q22.9531,477.0313 22.7813,476.8594 Q22.4688,476.5313 21.9063,476.3438 Q21.3438,476.1406 20.7813,476.1406 Q20.0781,476.1406 19.4844,476.4219 Q18.9063,476.7031 18.4531,477.3281 Q18,477.9531 18,478.8125 L18,479.7344 Q18,480.7656 18.8438,481.4531 Q19.6875,482.1406 21.1875,482.1406 Q22.0781,482.1406 22.7031,481.9375 Q23.0625,481.8281 23.4688,481.4688 Q23.7344,481.2656 23.875,481.2031 Q24.0156,481.1406 24.1875,481.1406 Q24.5156,481.1406 24.75,481.4063 Q25,481.6563 25,482.0156 Q25,482.3594 24.6563,482.7656 Q24.1563,483.3594 23.3594,483.6875 Q22.3125,484.1406 21.0313,484.1406 Q19.5313,484.1406 18.3281,483.5469 Q17.3594,483.0781 16.6719,482.0625 Q16,481.0469 16,479.8438 L16,478.75 Q16,477.5 16.5938,476.4063 Q17.2031,475.3125 18.25,474.7344 Q19.3125,474.1406 20.5,474.1406 Q21.2188,474.1406 21.8438,474.3906 Q22.4688,474.6406 23,475.1406 Z "/><text fill="#000000" font-family="sans-serif" font-size="12" lengthAdjust="spacingAndGlyphs" textLength="88" x="35" y="483.5508">CupcakeBottom</text><line style="stroke: #A80036; stroke-width: 1.5;" x1="7" x2="125" y1="494.6406" y2="494.6406"/><line style="stroke: #A80036; stroke-width: 1.5;" x1="7" x2="125" y1="502.6406" y2="502.6406"/><!--MD5=[dfae053c6a8bc1464366e6e5e8ef3069]
class CupcakeTopping--><rect fill="#FEFECE" filter="url(#f1evfcpkws0k12)" height="48" id="CupcakeTopping" style="stroke: #A80036; stroke-width: 1.5;" width="126" x="161" y="462.6406"/><ellipse cx="176" cy="478.6406" fill="#ADD1B2" rx="11" ry="11" style="stroke: #A80036; stroke-width: 1.0;"/><path d="M178,475.1406 Q178.2031,474.6406 178.4375,474.3906 Q178.6719,474.1406 178.9375,474.1406 Q179.4063,474.1406 179.7031,474.4219 Q180,474.7031 180,475.3594 L180,476.9219 Q180,477.5781 179.7188,477.8594 Q179.4375,478.1406 179,478.1406 Q178.6094,478.1406 178.3594,477.9688 Q178.1094,477.7969 178,477.3438 Q177.9531,477.0313 177.7813,476.8594 Q177.4688,476.5313 176.9063,476.3438 Q176.3438,476.1406 175.7813,476.1406 Q175.0781,476.1406 174.4844,476.4219 Q173.9063,476.7031 173.4531,477.3281 Q173,477.9531 173,478.8125 L173,479.7344 Q173,480.7656 173.8438,481.4531 Q174.6875,482.1406 176.1875,482.1406 Q177.0781,482.1406 177.7031,481.9375 Q178.0625,481.8281 178.4688,481.4688 Q178.7344,481.2656 178.875,481.2031 Q179.0156,481.1406 179.1875,481.1406 Q179.5156,481.1406 179.75,481.4063 Q180,481.6563 180,482.0156 Q180,482.3594 179.6563,482.7656 Q179.1563,483.3594 178.3594,483.6875 Q177.3125,484.1406 176.0313,484.1406 Q174.5313,484.1406 173.3281,483.5469 Q172.3594,483.0781 171.6719,482.0625 Q171,481.0469 171,479.8438 L171,478.75 Q171,477.5 171.5938,476.4063 Q172.2031,475.3125 173.25,474.7344 Q174.3125,474.1406 175.5,474.1406 Q176.2188,474.1406 176.8438,474.3906 Q177.4688,474.6406 178,475.1406 Z "/><text fill="#000000" font-family="sans-serif" font-size="12" lengthAdjust="spacingAndGlyphs" textLength="94" x="190" y="483.5508">CupcakeTopping</text><line style="stroke: #A80036; stroke-width: 1.5;" x1="162" x2="286" y1="494.6406" y2="494.6406"/><line style="stroke: #A80036; stroke-width: 1.5;" x1="162" x2="286" y1="502.6406" y2="502.6406"/><!--MD5=[635f958c1bf738237d06877f94a2516a]
link Customer to Basket--><path d="M132.5,78.6406 C123.671,96.2986 111.53,120.5816 102.6608,138.3186 " fill="none" id="Customer-Basket" style="stroke: #A80036; stroke-width: 1.0;"/><text fill="#000000" font-family="sans-serif" font-size="13" lengthAdjust="spacingAndGlyphs" textLength="7" x="121.8438" y="99.9786">1</text><text fill="#000000" font-family="sans-serif" font-size="13" lengthAdjust="spacingAndGlyphs" textLength="7" x="97.65" y="127.9781">1</text><!--MD5=[7ac9400f83ea825383aeca8b76dadf6a]
link Basket to Order--><path d="M89.0471,186.6406 C87.5479,204.2986 85.4862,228.5816 83.9801,246.3186 " fill="none" id="Basket-Order" style="stroke: #A80036; stroke-width: 1.0;"/><text fill="#000000" font-family="sans-serif" font-size="13" lengthAdjust="spacingAndGlyphs" textLength="7" x="80.718" y="207.9786">1</text><text fill="#000000" font-family="sans-serif" font-size="13" lengthAdjust="spacingAndGlyphs" textLength="5" x="78.8534" y="235.9781">*</text><!--MD5=[4209dc930e4154412c16242ff731f656]
link Order to OrderLines--><path d="M95.6701,294.6406 C106.165,312.2986 120.597,336.5816 131.139,354.3186 " fill="none" id="Order-OrderLines" style="stroke: #A80036; stroke-width: 1.0;"/><text fill="#000000" font-family="sans-serif" font-size="13" lengthAdjust="spacingAndGlyphs" textLength="7" x="91.1491" y="315.9786">1</text><text fill="#000000" font-family="sans-serif" font-size="13" lengthAdjust="spacingAndGlyphs" textLength="5" x="122.151" y="343.9781">*</text><!--MD5=[ee27cc7b7ac796c05f6201dec42f7f4e]
link Customer to PreviousOrders--><path d="M150.971,78.9496 C163.282,120.1146 188.733,205.2156 201.038,246.3606 " fill="none" id="Customer-PreviousOrders" style="stroke: #A80036; stroke-width: 1.0;"/><text fill="#000000" font-family="sans-serif" font-size="13" lengthAdjust="spacingAndGlyphs" textLength="7" x="144.7737" y="99.9568">1</text><text fill="#000000" font-family="sans-serif" font-size="13" lengthAdjust="spacingAndGlyphs" textLength="5" x="193.6134" y="235.629">*</text><!--MD5=[155bfff18c5bdfd4d5ff35bef2a73bea]
link PreviousOrders to OrderLines--><path d="M194.33,294.6406 C183.835,312.2986 169.403,336.5816 158.861,354.3186 " fill="none" id="PreviousOrders-OrderLines" style="stroke: #A80036; stroke-width: 1.0;"/><text fill="#000000" font-family="sans-serif" font-size="13" lengthAdjust="spacingAndGlyphs" textLength="7" x="183.1448" y="315.9786">1</text><text fill="#000000" font-family="sans-serif" font-size="13" lengthAdjust="spacingAndGlyphs" textLength="5" x="156.6302" y="343.9781">*</text><!--MD5=[fb9a9f1dcf4166546d358a6ac0531138]
link OrderLines to CupcakeBottom--><path d="M127.858,402.6406 C114.698,420.299 96.6007,444.5814 83.3812,462.319 " fill="none" id="OrderLines-CupcakeBottom" style="stroke: #A80036; stroke-width: 1.0;"/><text fill="#000000" font-family="sans-serif" font-size="13" lengthAdjust="spacingAndGlyphs" textLength="7" x="115.8265" y="423.9786">1</text><text fill="#000000" font-family="sans-serif" font-size="13" lengthAdjust="spacingAndGlyphs" textLength="5" x="82.0085" y="451.9786">*</text><!--MD5=[01c56c936e4d5b769e80003de360614d]
link OrderLines to CupcakeTopping--><path d="M162.142,402.6406 C175.302,420.299 193.399,444.5814 206.619,462.319 " fill="none" id="OrderLines-CupcakeTopping" style="stroke: #A80036; stroke-width: 1.0;"/><text fill="#000000" font-family="sans-serif" font-size="13" lengthAdjust="spacingAndGlyphs" textLength="7" x="158.4672" y="423.9786">1</text><text fill="#000000" font-family="sans-serif" font-size="13" lengthAdjust="spacingAndGlyphs" textLength="5" x="196.773" y="451.9786">*</text><!--MD5=[d54aa8092d3367cfd67fb6d49e251be4]
@startuml
title DomainModel

Customer "1" - - "1" Basket
Basket "1" - - "*" Order
Order "1" - - "*" OrderLines

Customer "1" - - "*" PreviousOrders
PreviousOrders "1" - - "*" OrderLines

OrderLines "1" - - "*" CupcakeBottom
OrderLines "1" - - "*" CupcakeTopping




@enduml

PlantUML version 1.2020.03beta6(Unknown compile time)
(GPL source distribution)
Java Runtime: OpenJDK Runtime Environment
JVM: OpenJDK 64-Bit Server VM
Java Version: 11.0.6+8-b520.43
Operating System: Windows 10
Default Encoding: Cp1252
Language: da
Country: DK
--></g></svg>