<?xml version="1.0" encoding="UTF-8" standalone="no"?><svg xmlns="http://www.w3.org/2000/svg" xmlns:xlink="http://www.w3.org/1999/xlink" contentScriptType="application/ecmascript" contentStyleType="text/css" height="530px" preserveAspectRatio="none" style="width:938px;height:530px;" version="1.1" viewBox="0 0 938 530" width="938px" zoomAndPan="magnify"><defs><filter height="300%" id="f131rk6mfh8lvu" width="300%" x="-1" y="-1"><feGaussianBlur result="blurOut" stdDeviation="2.0"/><feColorMatrix in="blurOut" result="blurOut2" type="matrix" values="0 0 0 0 0 0 0 0 0 0 0 0 0 0 0 0 0 0 .4 0"/><feOffset dx="4.0" dy="4.0" in="blurOut2" result="blurOut3"/><feBlend in="SourceGraphic" in2="blurOut3" mode="normal"/></filter></defs><g><text fill="#000000" font-family="sans-serif" font-size="18" lengthAdjust="spacingAndGlyphs" textLength="225" x="357.75" y="28.6855">"Login - Sequence Diagram"</text><line style="stroke: #A80036; stroke-width: 1.0; stroke-dasharray: 5.0,5.0;" x1="25" x2="25" y1="124.25" y2="442.0625"/><line style="stroke: #A80036; stroke-width: 1.0; stroke-dasharray: 5.0,5.0;" x1="152" x2="152" y1="124.25" y2="442.0625"/><line style="stroke: #A80036; stroke-width: 1.0; stroke-dasharray: 5.0,5.0;" x1="252" x2="252" y1="124.25" y2="442.0625"/><line style="stroke: #A80036; stroke-width: 1.0; stroke-dasharray: 5.0,5.0;" x1="347" x2="347" y1="124.25" y2="442.0625"/><line style="stroke: #A80036; stroke-width: 1.0; stroke-dasharray: 5.0,5.0;" x1="425.5" x2="425.5" y1="124.25" y2="442.0625"/><line style="stroke: #A80036; stroke-width: 1.0; stroke-dasharray: 5.0,5.0;" x1="551.5" x2="551.5" y1="124.25" y2="442.0625"/><line style="stroke: #A80036; stroke-width: 1.0; stroke-dasharray: 5.0,5.0;" x1="661.5" x2="661.5" y1="124.25" y2="442.0625"/><line style="stroke: #A80036; stroke-width: 1.0; stroke-dasharray: 5.0,5.0;" x1="761.5" x2="761.5" y1="124.25" y2="442.0625"/><line style="stroke: #A80036; stroke-width: 1.0; stroke-dasharray: 5.0,5.0;" x1="875.5" x2="875.5" y1="124.25" y2="442.0625"/><text fill="#000000" font-family="sans-serif" font-size="14" lengthAdjust="spacingAndGlyphs" textLength="29" x="8" y="121.1738">User</text><ellipse cx="25.5" cy="49.6406" fill="#FEFECE" filter="url(#f131rk6mfh8lvu)" rx="8" ry="8" style="stroke: #A80036; stroke-width: 2.0;"/><path d="M25.5,57.6406 L25.5,84.6406 M12.5,65.6406 L38.5,65.6406 M25.5,84.6406 L12.5,99.6406 M25.5,84.6406 L38.5,99.6406 " fill="none" filter="url(#f131rk6mfh8lvu)" style="stroke: #A80036; stroke-width: 2.0;"/><text fill="#000000" font-family="sans-serif" font-size="14" lengthAdjust="spacingAndGlyphs" textLength="29" x="8" y="455.5957">User</text><ellipse cx="25.5" cy="468.6719" fill="#FEFECE" filter="url(#f131rk6mfh8lvu)" rx="8" ry="8" style="stroke: #A80036; stroke-width: 2.0;"/><path d="M25.5,476.6719 L25.5,503.6719 M12.5,484.6719 L38.5,484.6719 M25.5,503.6719 L12.5,518.6719 M25.5,503.6719 L38.5,518.6719 " fill="none" filter="url(#f131rk6mfh8lvu)" style="stroke: #A80036; stroke-width: 2.0;"/><text fill="#000000" font-family="sans-serif" font-size="14" lengthAdjust="spacingAndGlyphs" textLength="55" x="122" y="121.1738">index.jsp</text><path d="M132,78.6406 L132,102.6406 M132,90.6406 L149,90.6406 " fill="none" filter="url(#f131rk6mfh8lvu)" style="stroke: #A80036; stroke-width: 2.0;"/><ellipse cx="161" cy="90.6406" fill="#FEFECE" filter="url(#f131rk6mfh8lvu)" rx="12" ry="12" style="stroke: #A80036; stroke-width: 2.0;"/><text fill="#000000" font-family="sans-serif" font-size="14" lengthAdjust="spacingAndGlyphs" textLength="55" x="122" y="455.5957">index.jsp</text><path d="M132,462.6719 L132,486.6719 M132,474.6719 L149,474.6719 " fill="none" filter="url(#f131rk6mfh8lvu)" style="stroke: #A80036; stroke-width: 2.0;"/><ellipse cx="161" cy="474.6719" fill="#FEFECE" filter="url(#f131rk6mfh8lvu)" rx="12" ry="12" style="stroke: #A80036; stroke-width: 2.0;"/><text fill="#000000" font-family="sans-serif" font-size="14" lengthAdjust="spacingAndGlyphs" textLength="112" x="193" y="121.1738">customerpage.jsp</text><path d="M231.5,78.6406 L231.5,102.6406 M231.5,90.6406 L248.5,90.6406 " fill="none" filter="url(#f131rk6mfh8lvu)" style="stroke: #A80036; stroke-width: 2.0;"/><ellipse cx="260.5" cy="90.6406" fill="#FEFECE" filter="url(#f131rk6mfh8lvu)" rx="12" ry="12" style="stroke: #A80036; stroke-width: 2.0;"/><text fill="#000000" font-family="sans-serif" font-size="14" lengthAdjust="spacingAndGlyphs" textLength="112" x="193" y="455.5957">customerpage.jsp</text><path d="M231.5,462.6719 L231.5,486.6719 M231.5,474.6719 L248.5,474.6719 " fill="none" filter="url(#f131rk6mfh8lvu)" style="stroke: #A80036; stroke-width: 2.0;"/><ellipse cx="260.5" cy="474.6719" fill="#FEFECE" filter="url(#f131rk6mfh8lvu)" rx="12" ry="12" style="stroke: #A80036; stroke-width: 2.0;"/><rect fill="#FEFECE" filter="url(#f131rk6mfh8lvu)" height="31.6094" style="stroke: #A80036; stroke-width: 1.5;" width="49" x="321" y="87.6406"/><text fill="#000000" font-family="sans-serif" font-size="14" lengthAdjust="spacingAndGlyphs" textLength="35" x="328" y="109.1738">Login</text><rect fill="#FEFECE" filter="url(#f131rk6mfh8lvu)" height="31.6094" style="stroke: #A80036; stroke-width: 1.5;" width="49" x="321" y="441.0625"/><text fill="#000000" font-family="sans-serif" font-size="14" lengthAdjust="spacingAndGlyphs" textLength="35" x="328" y="462.5957">Login</text><rect fill="#FEFECE" filter="url(#f131rk6mfh8lvu)" height="31.6094" style="stroke: #A80036; stroke-width: 1.5;" width="78" x="384.5" y="87.6406"/><text fill="#000000" font-family="sans-serif" font-size="14" lengthAdjust="spacingAndGlyphs" textLength="64" x="391.5" y="109.1738">Command</text><rect fill="#FEFECE" filter="url(#f131rk6mfh8lvu)" height="31.6094" style="stroke: #A80036; stroke-width: 1.5;" width="78" x="384.5" y="441.0625"/><text fill="#000000" font-family="sans-serif" font-size="14" lengthAdjust="spacingAndGlyphs" textLength="64" x="391.5" y="462.5957">Command</text><rect fill="#FEFECE" filter="url(#f131rk6mfh8lvu)" height="31.6094" style="stroke: #A80036; stroke-width: 1.5;" width="110" x="494.5" y="87.6406"/><text fill="#000000" font-family="sans-serif" font-size="14" lengthAdjust="spacingAndGlyphs" textLength="96" x="501.5" y="109.1738">FrontController</text><rect fill="#FEFECE" filter="url(#f131rk6mfh8lvu)" height="31.6094" style="stroke: #A80036; stroke-width: 1.5;" width="110" x="494.5" y="441.0625"/><text fill="#000000" font-family="sans-serif" font-size="14" lengthAdjust="spacingAndGlyphs" textLength="96" x="501.5" y="462.5957">FrontController</text><rect fill="#FEFECE" filter="url(#f131rk6mfh8lvu)" height="31.6094" style="stroke: #A80036; stroke-width: 1.5;" width="82" x="618.5" y="87.6406"/><text fill="#000000" font-family="sans-serif" font-size="14" lengthAdjust="spacingAndGlyphs" textLength="68" x="625.5" y="109.1738">httpServlet</text><rect fill="#FEFECE" filter="url(#f131rk6mfh8lvu)" height="31.6094" style="stroke: #A80036; stroke-width: 1.5;" width="82" x="618.5" y="441.0625"/><text fill="#000000" font-family="sans-serif" font-size="14" lengthAdjust="spacingAndGlyphs" textLength="68" x="625.5" y="462.5957">httpServlet</text><rect fill="#FEFECE" filter="url(#f131rk6mfh8lvu)" height="31.6094" style="stroke: #A80036; stroke-width: 1.5;" width="91" x="714.5" y="87.6406"/><text fill="#000000" font-family="sans-serif" font-size="14" lengthAdjust="spacingAndGlyphs" textLength="77" x="721.5" y="109.1738">UserMapper</text><rect fill="#FEFECE" filter="url(#f131rk6mfh8lvu)" height="31.6094" style="stroke: #A80036; stroke-width: 1.5;" width="91" x="714.5" y="441.0625"/><text fill="#000000" font-family="sans-serif" font-size="14" lengthAdjust="spacingAndGlyphs" textLength="77" x="721.5" y="462.5957">UserMapper</text><text fill="#000000" font-family="sans-serif" font-size="14" lengthAdjust="spacingAndGlyphs" textLength="107" x="819.5" y="121.1738">olskercupcakedb</text><path d="M858,70.6406 C858,60.6406 876,60.6406 876,60.6406 C876,60.6406 894,60.6406 894,70.6406 L894,96.6406 C894,106.6406 876,106.6406 876,106.6406 C876,106.6406 858,106.6406 858,96.6406 L858,70.6406 " fill="#FEFECE" filter="url(#f131rk6mfh8lvu)" style="stroke: #000000; stroke-width: 1.5;"/><path d="M858,70.6406 C858,80.6406 876,80.6406 876,80.6406 C876,80.6406 894,80.6406 894,70.6406 " fill="none" style="stroke: #000000; stroke-width: 1.5;"/><text fill="#000000" font-family="sans-serif" font-size="14" lengthAdjust="spacingAndGlyphs" textLength="107" x="819.5" y="455.5957">olskercupcakedb</text><path d="M858,468.6719 C858,458.6719 876,458.6719 876,458.6719 C876,458.6719 894,458.6719 894,468.6719 L894,494.6719 C894,504.6719 876,504.6719 876,504.6719 C876,504.6719 858,504.6719 858,494.6719 L858,468.6719 " fill="#FEFECE" filter="url(#f131rk6mfh8lvu)" style="stroke: #000000; stroke-width: 1.5;"/><path d="M858,468.6719 C858,478.6719 876,478.6719 876,478.6719 C876,478.6719 894,478.6719 894,468.6719 " fill="none" style="stroke: #000000; stroke-width: 1.5;"/><polygon fill="#A80036" points="140.5,152.6016,150.5,156.6016,140.5,160.6016,144.5,156.6016" style="stroke: #A80036; stroke-width: 1.0;"/><line style="stroke: #A80036; stroke-width: 1.0;" x1="25.5" x2="146.5" y1="156.6016" y2="156.6016"/><text fill="#000000" font-family="sans-serif" font-size="13" lengthAdjust="spacingAndGlyphs" textLength="103" x="32.5" y="151.7451">email &amp; password</text><polygon fill="#A80036" points="335.5,166.6016,345.5,170.6016,335.5,174.6016,339.5,170.6016" style="stroke: #A80036; stroke-width: 1.0;"/><line style="stroke: #A80036; stroke-width: 1.0;" x1="152.5" x2="341.5" y1="170.6016" y2="170.6016"/><polygon fill="#A80036" points="413.5,196.9531,423.5,200.9531,413.5,204.9531,417.5,200.9531" style="stroke: #A80036; stroke-width: 1.0;"/><line style="stroke: #A80036; stroke-width: 1.0;" x1="347.5" x2="419.5" y1="200.9531" y2="200.9531"/><text fill="#000000" font-family="sans-serif" font-size="13" lengthAdjust="spacingAndGlyphs" textLength="54" x="354.5" y="196.0967">execute()</text><polygon fill="#A80036" points="539.5,227.3047,549.5,231.3047,539.5,235.3047,543.5,231.3047" style="stroke: #A80036; stroke-width: 1.0;"/><line style="stroke: #A80036; stroke-width: 1.0;" x1="425.5" x2="545.5" y1="231.3047" y2="231.3047"/><text fill="#000000" font-family="sans-serif" font-size="13" lengthAdjust="spacingAndGlyphs" textLength="102" x="432.5" y="226.4482">processRequest()</text><polygon fill="#A80036" points="649.5,241.3047,659.5,245.3047,649.5,249.3047,653.5,245.3047" style="stroke: #A80036; stroke-width: 1.0;"/><line style="stroke: #A80036; stroke-width: 1.0;" x1="551.5" x2="655.5" y1="245.3047" y2="245.3047"/><polygon fill="#A80036" points="750,255.3047,760,259.3047,750,263.3047,754,259.3047" style="stroke: #A80036; stroke-width: 1.0;"/><line style="stroke: #A80036; stroke-width: 1.0;" x1="661.5" x2="756" y1="259.3047" y2="259.3047"/><polygon fill="#A80036" points="773,285.6563,763,289.6563,773,293.6563,769,289.6563" style="stroke: #A80036; stroke-width: 1.0;"/><line style="stroke: #A80036; stroke-width: 1.0;" x1="767" x2="875" y1="289.6563" y2="289.6563"/><text fill="#000000" font-family="sans-serif" font-size="13" lengthAdjust="spacingAndGlyphs" textLength="50" x="779" y="284.7998">resultset</text><line style="stroke: #A80036; stroke-width: 1.0;" x1="762" x2="804" y1="320.0078" y2="320.0078"/><line style="stroke: #A80036; stroke-width: 1.0;" x1="804" x2="804" y1="320.0078" y2="333.0078"/><line style="stroke: #A80036; stroke-width: 1.0;" x1="763" x2="804" y1="333.0078" y2="333.0078"/><polygon fill="#A80036" points="773,329.0078,763,333.0078,773,337.0078,769,333.0078" style="stroke: #A80036; stroke-width: 1.0;"/><text fill="#000000" font-family="sans-serif" font-size="13" lengthAdjust="spacingAndGlyphs" textLength="97" x="769" y="315.1514">validate resultset</text><polygon fill="#A80036" points="672.5,359.3594,662.5,363.3594,672.5,367.3594,668.5,363.3594" style="stroke: #A80036; stroke-width: 1.0;"/><line style="stroke: #A80036; stroke-width: 1.0;" x1="666.5" x2="761" y1="363.3594" y2="363.3594"/><text fill="#000000" font-family="sans-serif" font-size="13" lengthAdjust="spacingAndGlyphs" textLength="19" x="678.5" y="358.5029">OK</text><polygon fill="#A80036" points="263,389.7109,253,393.7109,263,397.7109,259,393.7109" style="stroke: #A80036; stroke-width: 1.0;"/><line style="stroke: #A80036; stroke-width: 1.0;" x1="257" x2="660.5" y1="393.7109" y2="393.7109"/><text fill="#000000" font-family="sans-serif" font-size="13" lengthAdjust="spacingAndGlyphs" textLength="41" x="269" y="388.8545">forward</text><polygon fill="#A80036" points="36.5,420.0625,26.5,424.0625,36.5,428.0625,32.5,424.0625" style="stroke: #A80036; stroke-width: 1.0;"/><line style="stroke: #A80036; stroke-width: 1.0;" x1="30.5" x2="251" y1="424.0625" y2="424.0625"/><text fill="#000000" font-family="sans-serif" font-size="13" lengthAdjust="spacingAndGlyphs" textLength="176" x="42.5" y="419.2061">Welcome to Olsker's Cupcake</text><!--MD5=[b8b016e15a71a5ed5a34eb00cc7e9e3d]
@startuml

title "Login - Sequence Diagram"

actor User
boundary index.jsp
boundary customerpage.jsp
participant Login
participant Command
participant FrontController
participant httpServlet
participant UserMapper
database olskercupcakedb

User -> index.jsp : email & password
index.jsp -> Login
Login -> Command: execute()
Command -> FrontController: processRequest()
FrontController -> httpServlet:
httpServlet -> UserMapper:

olskercupcakedb -> UserMapper: resultset
UserMapper -> UserMapper: validate resultset
UserMapper -> httpServlet: OK
httpServlet -> customerpage.jsp: forward
customerpage.jsp -> User: Welcome to Olsker's Cupcake

@enduml

PlantUML version 1.2020.03beta6(Unknown compile time)
(GPL source distribution)
Java Runtime: OpenJDK Runtime Environment
JVM: OpenJDK 64-Bit Server VM
Java Version: 11.0.5+10-b520.38
Operating System: Windows 10
Default Encoding: Cp1252
Language: da
Country: DK
--></g></svg>