<?xml version="1.0" encoding="UTF-8" standalone="no"?><svg xmlns="http://www.w3.org/2000/svg" xmlns:xlink="http://www.w3.org/1999/xlink" contentScriptType="application/ecmascript" contentStyleType="text/css" height="660px" preserveAspectRatio="none" style="width:453px;height:660px;" version="1.1" viewBox="0 0 453 660" width="453px" zoomAndPan="magnify"><defs><filter height="300%" id="f1puip7tieltq8" width="300%" x="-1" y="-1"><feGaussianBlur result="blurOut" stdDeviation="3.0"/><feColorMatrix in="blurOut" result="blurOut2" type="matrix" values="0 0 0 0 0 0 0 0 0 0 0 0 0 0 0 0 0 0 .4 0"/><feOffset dx="6.0" dy="6.0" in="blurOut2" result="blurOut3"/><feBlend in="SourceGraphic" in2="blurOut3" mode="normal"/></filter></defs><g><text fill="#000000" font-family="sans-serif" font-size="27" lengthAdjust="spacingAndGlyphs" textLength="163.5" x="150.75" y="28.0283">Add to basket</text><ellipse cx="303.75" cy="60.9609" fill="#000000" filter="url(#f1puip7tieltq8)" rx="15" ry="15" style="stroke: none; stroke-width: 1.5;"/><rect fill="#FEFECE" filter="url(#f1puip7tieltq8)" height="52.6406" rx="18.75" ry="18.75" style="stroke: #A80036; stroke-width: 2.25;" width="267" x="170.25" y="137.4609"/><text fill="#000000" font-family="sans-serif" font-size="18" lengthAdjust="spacingAndGlyphs" textLength="237" x="185.25" y="171.1465">Choose Topping and Bottom</text><rect fill="#FEFECE" filter="url(#f1puip7tieltq8)" height="52.6406" rx="18.75" ry="18.75" style="stroke: #A80036; stroke-width: 2.25;" width="141" x="233.25" y="251.4609"/><text fill="#000000" font-family="sans-serif" font-size="18" lengthAdjust="spacingAndGlyphs" textLength="111" x="248.25" y="285.1465">Enter amount</text><polygon fill="#FEFECE" filter="url(#f1puip7tieltq8)" points="303.75,373.7109,321.75,391.7109,303.75,409.7109,285.75,391.7109,303.75,373.7109" style="stroke: #A80036; stroke-width: 2.25;"/><rect fill="#FEFECE" filter="url(#f1puip7tieltq8)" height="52.6406" rx="18.75" ry="18.75" style="stroke: #A80036; stroke-width: 2.25;" width="214.5" x="9" y="365.4609"/><text fill="#000000" font-family="sans-serif" font-size="18" lengthAdjust="spacingAndGlyphs" textLength="184.5" x="24" y="399.1465">Add cupcake to basket</text><rect fill="#FEFECE" filter="url(#f1puip7tieltq8)" height="52.6406" rx="18.75" ry="18.75" style="stroke: #A80036; stroke-width: 2.25;" width="162" x="144.75" y="500.4609"/><text fill="#000000" font-family="sans-serif" font-size="18" lengthAdjust="spacingAndGlyphs" textLength="132" x="159.75" y="534.1465">Restart process</text><ellipse cx="225.75" cy="629.4609" fill="none" filter="url(#f1puip7tieltq8)" rx="15" ry="15" style="stroke: #000000; stroke-width: 1.5;"/><ellipse cx="226.5" cy="630.2109" fill="#000000" rx="9" ry="9" style="stroke: none; stroke-width: 1.5;"/><!--MD5=[ecc3a6e9ff87c10ed99f6ae649bf7b08]
link start to Choose Topping and Bottom--><path d="M303.75,76.3314 C303.75,90.1014 303.75,111.7149 303.75,129.8124 " fill="none" id="start-&gt;Choose Topping and Bottom" style="stroke: #A80036; stroke-width: 1.5;"/><polygon fill="#A80036" points="303.75,137.3214,309.75,123.8214,303.75,129.8214,297.75,123.8214,303.75,137.3214" style="stroke: #A80036; stroke-width: 1.5;"/><!--MD5=[6d314cc10c19de22a9811ddebea582a7]
link Choose Topping and Bottom to Enter amount--><path d="M303.75,190.3989 C303.75,206.1519 303.75,226.6044 303.75,243.5919 " fill="none" id="Choose Topping and Bottom-&gt;Enter amount" style="stroke: #A80036; stroke-width: 1.5;"/><polygon fill="#A80036" points="303.75,251.1234,309.75,237.6234,303.75,243.6234,297.75,237.6234,303.75,251.1234" style="stroke: #A80036; stroke-width: 1.5;"/><!--MD5=[8fd27f972e35facd20dff3de4b48bba5]
link Enter amount to #9453--><path d="M303.75,304.3989 C303.75,322.5924 303.75,347.0559 303.75,365.2074 " fill="none" id="Enter amount-&gt;#9453" style="stroke: #A80036; stroke-width: 1.5;"/><polygon fill="#A80036" points="303.75,373.0569,309.75,359.5569,303.75,365.5569,297.75,359.5569,303.75,373.0569" style="stroke: #A80036; stroke-width: 1.5;"/><text fill="#000000" font-family="sans-serif" font-size="16.5" lengthAdjust="spacingAndGlyphs" textLength="96" x="325.95" y="357.8385">Is amount &gt; 0</text><!--MD5=[b3a28ada479e185b9f03257f8897cbe1]
reverse link Add cupcake to basket to #9453--><path d="M231.477,391.7109 C252.453,391.7109 271.911,391.7109 285.342,391.7109 " fill="none" id="Add cupcake to basket&lt;-#9453" style="stroke: #A80036; stroke-width: 1.5;"/><polygon fill="#A80036" points="223.689,391.7109,237.189,397.7109,231.189,391.7109,237.189,385.7109,223.689,391.7109" style="stroke: #A80036; stroke-width: 1.5;"/><text fill="#000000" font-family="sans-serif" font-size="16.5" lengthAdjust="spacingAndGlyphs" textLength="30" x="239.625" y="383.3394">Yes</text><!--MD5=[0a56a3420aa3fe1935fa393cc59be05a]
link Add cupcake to basket to Restart process--><path d="M136.8461,418.0389 C154.6274,439.4739 180.411,470.5554 199.6365,493.7319 " fill="none" id="Add cupcake to basket-&gt;Restart process" style="stroke: #A80036; stroke-width: 1.5;"/><polygon fill="#A80036" points="204.8745,500.0453,200.8729,485.8243,200.0859,494.273,191.6372,493.486,204.8745,500.0453" style="stroke: #A80036; stroke-width: 1.5;"/><!--MD5=[55e22afdde3184bd13cb7d69c8aae83a]
link #9453 to Restart process--><path d="M297.3675,404.0124 C285.963,423.3129 261.6825,464.4039 244.5645,493.3719 " fill="none" id="#9453-&gt;Restart process" style="stroke: #A80036; stroke-width: 1.5;"/><polygon fill="#A80036" points="240.378,500.4554,252.4112,491.885,244.1933,493.9983,242.0799,485.7805,240.378,500.4554" style="stroke: #A80036; stroke-width: 1.5;"/><text fill="#000000" font-family="sans-serif" font-size="16.5" lengthAdjust="spacingAndGlyphs" textLength="19.5" x="270.75" y="466.5894">No</text><!--MD5=[7210f6751547d34f143a549334f0c3a0]
link Restart process to end--><path d="M225.75,553.3821 C225.75,569.8958 225.75,591.2435 225.75,606.8651 " fill="none" id="Restart process-&gt;end" style="stroke: #A80036; stroke-width: 1.5;"/><polygon fill="#A80036" points="225.75,614.4563,231.75,600.9563,225.75,606.9563,219.75,600.9563,225.75,614.4563" style="stroke: #A80036; stroke-width: 1.5;"/><!--MD5=[4dc2fe0bb44123d66d4ed2c3fe0c029e]
@startuml
title Add to basket
(*)  - -> "Choose Topping and Bottom"
- -> "Enter amount"
If "Is amount > 0" then
-left-> [Yes] "Add cupcake to basket"
- -> "Restart process"
else
- -> [No] "Restart process"
Endif
- ->(*)
@enduml

PlantUML version 1.2020.03beta6(Unknown compile time)
(GPL source distribution)
Java Runtime: OpenJDK Runtime Environment
JVM: OpenJDK 64-Bit Server VM
Java Version: 11.0.6+8-b520.43
Operating System: Windows 10
Default Encoding: Cp1252
Language: da
Country: DK
--></g></svg>